<svg version="1.2" xmlns="http://www.w3.org/2000/svg" viewBox="0 0 814 630" width="814" height="630">
	<title>ellipse-svg</title>
	<defs>
		<linearGradient id="g1" x1="372" y1="763.7" x2="548.5" y2=".7" gradientUnits="userSpaceOnUse">
			<stop offset="0" stop-color="#ff8f5a"/>
			<stop offset=".99" stop-color="#ff2f96"/>
			<stop offset="1" stop-color="#ff2f96"/>
		</linearGradient>
	</defs>
	<style>
		.s0 { fill: #6055c4 } 
		.s1 { opacity: .6;fill: url(#g1) } 
	</style>
	<g id="Layer">
		<path id="Layer" class="s0" d="m395.5 40.4c106.8-50.5 207.5-50.6 291.7-12.7 84.4 37.5 152.4 113.1 198.5 207.1 44.3 94.9 44.2 196.8 8.1 279.2-36.7 83.7-97.7 146.8-180.8 191.8-44.1 22.7-90.3 38.2-149.2 47.7-58 9.4-128.7 12.8-203.5 8-148.4-9.3-314.9-53.1-349.9-151.8-19.9-49-7.4-105.2 17.3-161.8 25.1-56.6 62.5-113.6 101.7-166.1 39.7-52.6 81.2-100.7 123.9-141.5 43.1-40.9 87.5-74.5 142.2-99.9z"/>
		<path id="Layer" class="s1" d="m395.5 40.4c106.8-50.5 207.5-50.6 291.7-12.7 84.4 37.5 152.4 113.1 198.5 207.1 44.3 94.9 44.2 196.8 8.1 279.2-36.7 83.7-97.7 146.8-180.8 191.8-44.1 22.7-90.3 38.2-149.2 47.7-58 9.4-128.7 12.8-203.5 8-148.4-9.3-314.9-53.1-349.9-151.8-19.9-49-7.4-105.2 17.3-161.8 25.1-56.6 62.5-113.6 101.7-166.1 39.7-52.6 81.2-100.7 123.9-141.5 43.1-40.9 87.5-74.5 142.2-99.9z"/>
	</g>
</svg>